<?xml version="1.0" standalone="no"?>
<svg version="1.0" xmlns="http://www.w3.org/2000/svg"
 width="60px" height="60px" viewBox="0 0 622 580"
 preserveAspectRatio="xMidYMid meet">

<g transform="translate(0,580) scale(0.1,-0.1)"
fill="#000000" stroke="none">
<path d="M1680 5690 c-19 -5 -255 -9 -525 -9 -269 0 -509 -1 -532 -1 l-43 0 0
-60 c0 -32 -5 -71 -12 -85 -9 -19 -9 -28 0 -37 8 -8 12 -52 12 -125 l0 -113
-168 1 c-92 0 -186 0 -209 0 l-43 -1 0 -60 c0 -32 -5 -71 -12 -85 -9 -19 -9
-28 0 -37 17 -17 17 -507 0 -543 -9 -21 -9 -31 0 -46 17 -26 15 -74 -3 -89
-19 -16 -19 -44 1 -61 12 -10 22 -10 48 -1 20 8 98 12 205 12 192 0 195 -1
172 -67 -10 -26 -10 -38 -2 -46 7 -7 11 -65 11 -159 l0 -148 238 -1 c199 -1
402 -4 487 -7 11 -1 55 1 98 4 l77 6 0 209 0 209 317 -1 c203 0 322 -4 330
-11 8 -6 28 -7 50 -3 28 6 981 10 1343 6 19 0 311 2 649 5 l613 5 -6 -43 c-3
-24 -5 -47 -5 -53 1 -5 3 -81 6 -167 l4 -158 237 -2 c130 0 288 0 350 2 73 1
117 -2 126 -9 10 -8 21 -8 40 -1 15 5 56 10 92 10 l64 0 0 210 0 210 210 0
210 0 0 58 c0 32 5 63 12 70 10 10 10 17 0 32 -9 15 -12 113 -12 379 0 198 -4
362 -8 365 -5 3 -99 6 -209 7 l-201 2 -1 201 c0 110 -4 203 -9 208 -6 6 -2064
21 -2232 16 -162 -5 -1681 -2 -1705 4 -16 4 -46 3 -65 -2z m-680 -84 c0 -2 -7
-7 -16 -10 -8 -3 -12 -2 -9 4 6 10 25 14 25 6z m190 -6 c0 -5 -42 -40 -92 -78
-51 -38 -135 -102 -186 -141 -122 -93 -181 -123 -235 -119 l-42 3 79 63 c207
165 476 319 476 272z m235 -46 c-69 -48 -150 -97 -135 -81 3 3 41 35 85 71 51
43 88 66 104 66 21 0 10 -11 -54 -56z m262 17 c-23 -21 -115 -99 -205 -175
-149 -124 -167 -136 -203 -136 -21 0 -39 2 -39 4 0 2 33 23 73 47 180 106 328
223 348 277 6 16 17 22 39 22 l30 0 -43 -39z m172 36 c-2 -2 -29 -21 -59 -42
l-55 -38 40 41 c21 23 48 42 59 42 10 0 17 -1 15 -3z m271 -2 c0 -2 -18 -14
-40 -25 l-40 -20 12 25 c8 18 19 25 40 25 15 0 28 -2 28 -5z m235 -8 c-11 -8
-81 -49 -155 -92 -74 -42 -151 -86 -170 -98 -73 -42 -2 14 135 107 109 74 148
95 175 95 32 1 33 0 15 -12z m165 -20 c-109 -65 -150 -88 -150 -83 0 2 32 30
72 60 51 40 80 56 102 56 30 0 29 -1 -24 -33z m420 29 c0 -2 -57 -36 -127 -76
-71 -40 -139 -80 -153 -88 -47 -29 -1 12 105 92 83 63 106 76 138 76 20 0 37
-2 37 -4z m270 -9 c-8 -7 -51 -39 -95 -71 -44 -33 -127 -98 -185 -144 -116
-93 -170 -125 -205 -120 -21 3 7 30 172 176 l197 172 66 0 c53 -1 62 -3 50
-13z m239 -13 c-13 -14 -125 -93 -248 -175 -208 -139 -228 -150 -265 -147
l-40 3 94 67 c52 37 135 101 185 143 117 98 185 134 249 135 l49 0 -24 -26z
m520 22 c-5 -5 -208 -125 -234 -138 -11 -6 14 24 55 66 l74 76 55 0 c30 0 52
-2 50 -4z m241 0 c0 -7 -214 -155 -320 -223 -125 -79 -217 -125 -243 -121 -32
4 90 104 292 239 157 105 166 109 217 109 30 0 54 -2 54 -4z m219 0 c-11 -9
-531 -306 -537 -306 -14 0 100 71 218 135 141 76 194 111 229 149 17 18 35 26
59 26 20 0 33 -2 31 -4z m251 0 c0 -14 -299 -203 -435 -275 -107 -57 -65 -19
106 94 70 46 151 106 180 134 49 45 59 50 102 51 26 0 47 -2 47 -4z m684 -65
c-114 -78 -276 -180 -379 -236 l-70 -38 30 32 c37 41 164 140 265 208 41 28
86 62 99 77 22 23 32 26 89 26 l65 0 -99 -69z m246 39 c0 -22 -12 -40 -47 -74
-118 -109 -313 -249 -341 -244 -10 2 51 63 178 175 107 95 198 173 203 173 4
0 7 -13 7 -30z m-3685 -37 c-33 -31 -128 -108 -212 -170 -129 -96 -157 -113
-188 -113 -36 0 -32 4 126 122 180 134 305 218 323 218 6 -1 -16 -26 -49 -57z
m3275 39 c-180 -124 -340 -257 -367 -307 -7 -12 -21 -15 -53 -13 l-44 3 140
106 c160 121 219 162 289 201 56 31 73 36 35 10z m-3890 5 c0 -2 -32 -29 -71
-62 -64 -52 -85 -51 -27 1 30 28 98 70 98 61z m3630 -71 c-8 -8 -89 -68 -179
-135 -106 -78 -174 -121 -190 -121 -13 0 -22 3 -18 6 9 10 392 264 397 264 2
0 -2 -6 -10 -14z m-3490 -30 c0 -2 -19 -16 -41 -31 -23 -15 -38 -22 -34 -15 4
6 21 20 39 31 32 20 36 21 36 15z m-710 -10 c0 -2 -25 -25 -55 -51 -47 -40
-55 -44 -55 -26 0 14 16 30 53 51 54 31 57 32 57 26z m420 -9 c0 -2 -12 -14
-27 -28 l-28 -24 24 28 c23 25 31 32 31 24z m1609 -56 c-184 -161 -169 -151
-228 -151 -32 0 -51 4 -46 9 11 9 308 181 314 181 2 0 -16 -17 -40 -39z m2841
21 c0 -10 -20 -29 -47 -46 l-48 -28 45 46 c24 25 45 46 47 46 2 0 3 -8 3 -18z
m-4520 -26 c-8 -8 -51 -44 -95 -80 -60 -50 -87 -66 -110 -66 l-30 1 38 22 c21
12 75 47 120 78 86 60 101 68 77 45z m1328 -66 c-78 -74 -86 -79 -128 -80
l-44 0 124 79 c69 44 126 80 128 80 2 1 -34 -35 -80 -79z m1063 16 c-32 -38
-120 -96 -146 -96 -24 0 -15 9 60 54 102 61 102 61 86 42z m-1405 -5 c-17 -27
-116 -91 -142 -91 -25 0 -16 8 56 49 93 55 94 55 86 42z m3083 -41 c-38 -35
-62 -49 -84 -50 -25 0 -19 6 50 50 44 27 82 49 84 50 3 0 -20 -22 -50 -50z
m-1076 -5 c-33 -39 -42 -45 -77 -45 -22 0 -37 2 -35 4 5 5 143 86 147 86 2 0
-14 -20 -35 -45z m-2309 -10 c-18 -24 -34 -35 -52 -35 -15 0 -22 4 -16 9 11
10 88 61 92 61 2 0 -9 -16 -24 -35z m3801 -5 c-13 -25 -21 -30 -53 -30 l-37 0
45 30 c57 37 64 37 45 0z m-2005 -10 c-6 -11 -20 -20 -30 -20 -27 0 -25 7 8
24 35 19 35 20 22 -4z m-3000 -109 c0 -12 -11 -23 -31 -30 -45 -16 -46 -14
-14 19 33 35 45 38 45 11z m707 7 c8 -6 28 -7 50 -3 28 6 910 10 1338 6 17 0
566 2 1221 4 1047 4 1193 3 1204 -10 16 -19 67 -19 122 -1 32 11 90 15 221 14
l179 -1 -6 -41 c-3 -23 -5 -45 -5 -51 1 -5 3 -129 6 -275 3 -195 0 -271 -8
-288 -10 -17 -10 -25 -1 -34 7 -7 12 -24 12 -38 0 -23 -6 -28 -47 -37 -63 -15
-663 -16 -680 -1 -7 6 -20 7 -29 4 -15 -6 -16 5 -14 91 2 54 3 146 2 206 l-2
107 -113 0 c-70 0 -117 4 -124 11 -7 7 -28 9 -55 5 -129 -18 -159 -18 -198 -1
-33 15 -44 15 -86 4 -29 -7 -101 -12 -176 -12 -71 1 -139 1 -153 1 -45 0 -754
0 -782 0 -16 1 -135 -1 -266 -4 -205 -4 -245 -3 -281 11 -40 15 -48 15 -110 0
-50 -13 -89 -15 -154 -11 -48 4 -98 6 -112 6 -87 -1 -709 -2 -725 -1 -11 1
-37 -1 -57 -5 l-38 -6 0 -54 c0 -29 -5 -65 -12 -79 -9 -19 -9 -28 0 -37 8 -8
12 -50 12 -119 l0 -106 -57 -11 c-47 -9 -586 -10 -700 -2 -27 2 -29 21 -8 54
13 20 13 25 0 42 -12 16 -14 75 -15 347 l0 327 317 -1 c203 0 322 -4 330 -11z
m4753 -7 c0 -12 -11 -23 -30 -30 l-31 -10 23 29 c27 34 38 37 38 11z m-5479
-123 c-11 -18 -47 -50 -80 -70 -34 -20 -88 -58 -122 -85 -132 -104 -142 -109
-137 -65 2 21 22 41 88 90 101 76 239 162 258 162 11 0 9 -8 -7 -32z m5479 24
c0 -21 -39 -58 -104 -99 -39 -25 -100 -69 -136 -98 -36 -28 -75 -57 -87 -64
-21 -11 -23 -10 -23 17 0 23 13 37 83 88 116 86 143 103 201 135 54 30 66 34
66 21z m-5710 -16 c0 -2 -25 -25 -55 -51 -46 -39 -55 -43 -55 -27 0 14 17 30
53 51 55 32 57 33 57 27z m5460 1 c0 -1 -22 -25 -50 -52 -46 -46 -50 -47 -50
-25 0 19 11 31 48 52 50 29 52 29 52 25z m-5216 -176 c-5 -4 -27 -18 -49 -30
l-40 -23 45 41 c25 23 47 36 49 30 2 -6 -1 -14 -5 -18z m5463 5 c-3 -8 -25
-25 -49 -37 l-43 -22 45 41 c46 41 57 45 47 18z m-5767 -156 c-25 -22 -47 -34
-49 -27 -2 6 1 13 7 15 6 2 26 14 44 27 49 35 49 29 -2 -15z m1570 36 c0 -2
-7 -7 -16 -10 -8 -3 -12 -2 -9 4 6 10 25 14 25 6z m190 -5 c0 -5 -44 -43 -97
-83 -54 -41 -136 -103 -183 -140 -128 -99 -245 -151 -265 -118 -12 19 241 202
420 304 75 43 125 58 125 37z m310 6 c0 -5 -159 -111 -190 -127 -32 -16 -30
-14 65 64 45 37 90 66 103 66 12 0 22 -2 22 -3z m220 -10 c-40 -36 -168 -144
-283 -240 -115 -96 -132 -107 -168 -107 -21 0 -39 2 -39 4 0 2 50 35 111 72
164 102 278 191 308 240 21 35 32 43 56 44 25 0 27 -2 15 -13z m140 9 c0 -2
-26 -20 -57 -41 l-58 -37 40 41 c21 22 47 41 57 41 10 0 18 -2 18 -4z m241
-21 c-23 -14 -44 -25 -46 -25 -2 0 2 11 8 25 10 20 19 25 47 25 l35 0 -44 -25z
m274 17 c-6 -5 -75 -46 -155 -92 -80 -45 -161 -92 -180 -103 -70 -40 -6 10
133 105 110 76 150 97 177 98 19 0 30 -4 25 -8z m204 4 c-5 -5 -159 -95 -184
-108 -28 -15 -12 1 64 61 45 36 72 51 94 51 17 0 28 -2 26 -4z m371 0 c0 -2
-53 -34 -117 -71 -65 -37 -134 -77 -153 -88 -52 -30 -27 -7 90 82 87 66 112
80 143 80 20 1 37 -1 37 -3z m280 0 c0 -3 -53 -44 -117 -92 -65 -48 -152 -115
-193 -149 -41 -34 -98 -74 -127 -89 -52 -26 -88 -34 -81 -18 2 5 91 86 198
180 l195 172 63 0 c34 0 62 -2 62 -4z m220 -30 c-19 -19 -134 -100 -255 -181
-201 -133 -223 -146 -260 -143 l-39 3 124 92 c69 50 152 115 185 143 93 79
170 120 230 120 l50 0 -35 -34z m490 20 c0 -11 -132 -97 -205 -134 -5 -2 24
30 65 72 63 64 80 76 107 76 22 0 33 -5 33 -14z m-1956 -8 c-9 -20 -106 -101
-272 -225 -131 -97 -158 -114 -185 -111 -30 3 -25 8 113 113 151 114 326 235
341 235 5 0 6 -6 3 -12z m2909 -20 c-18 -18 -36 -28 -40 -24 -4 5 -2 11 4 13
7 3 23 13 35 23 36 30 36 23 1 -12z m-3573 18 c0 -2 -35 -32 -77 -67 -75 -62
-76 -62 -43 -21 33 41 120 105 120 88z m-1583 -81 c-4 -8 -14 -15 -23 -15 -16
0 -16 2 1 20 20 22 31 20 22 -5z m5463 6 c0 -12 -9 -20 -26 -24 l-25 -4 22 23
c27 29 29 29 29 5z m-1263 -55 c-6 -14 -158 -120 -232 -160 l-50 -28 55 52
c91 86 224 182 228 164 2 -8 2 -21 -1 -28z m-2499 11 c-30 -25 -99 -66 -83
-50 16 16 97 73 104 73 3 -1 -6 -11 -21 -23z m-692 4 c-4 -5 -29 -28 -56 -51
-43 -36 -50 -39 -50 -22 0 14 17 30 53 51 57 34 61 35 53 22z m414 -14 c0 -2
-12 -14 -27 -28 l-28 -24 24 28 c23 25 31 32 31 24z m1655 -16 c-6 -5 -57 -50
-115 -100 -104 -91 -105 -91 -159 -91 -38 0 -52 3 -45 10 11 11 315 189 324
190 2 0 0 -4 -5 -9z m-3345 -61 c-72 -66 -90 -76 -90 -53 0 11 26 34 68 60 37
23 69 42 72 42 3 1 -20 -22 -50 -49z m2954 -45 c-80 -76 -93 -84 -129 -85 -31
0 -37 3 -27 13 12 11 232 154 241 156 2 1 -36 -37 -85 -84z m2546 81 c0 -2
-27 -27 -60 -56 -48 -42 -60 -48 -60 -32 0 12 20 31 58 55 60 38 62 39 62 33z
m-3870 -10 c0 -13 -191 -156 -208 -156 -37 0 -25 13 55 60 41 25 92 57 112 72
38 29 41 31 41 24z m3999 -76 c-60 -78 -62 -80 -105 -80 -24 0 -44 2 -44 5 0
6 199 155 206 155 3 0 -23 -36 -57 -80z m-5454 11 c-68 -87 -76 -93 -126 -89
l-43 3 99 72 c55 40 104 73 108 73 5 0 -13 -27 -38 -59z m3793 -31 c-45 -37
-82 -60 -97 -60 -18 0 -22 3 -14 11 14 14 166 107 176 108 5 1 -24 -26 -65
-59z m-1348 46 c0 -14 -132 -106 -151 -106 -31 0 -19 11 72 65 80 47 79 47 79
41z m-299 -54 c-29 -42 -47 -54 -73 -50 -20 3 -16 8 32 40 30 20 56 37 58 37
2 1 -6 -12 -17 -27z m1787 -31 c-7 -12 -23 -21 -35 -21 -30 0 -29 4 9 28 38
24 45 22 26 -7z m227 -10 c-3 -6 -11 -11 -17 -11 -6 0 -6 6 2 15 14 17 26 13
15 -4z m-3645 -75 c0 -2 -7 -7 -16 -10 -8 -3 -12 -2 -9 4 6 10 25 14 25 6z
m190 -5 c0 -5 -44 -43 -97 -83 -54 -41 -136 -103 -183 -140 -47 -36 -113 -79
-147 -97 -64 -32 -128 -42 -121 -18 7 21 244 193 376 271 115 69 172 91 172
67z m4199 -3 c0 -19 -318 -257 -407 -305 -74 -41 -125 -53 -136 -34 -11 17
192 166 379 278 114 69 166 88 164 61z m146 -6 c-6 -5 -50 -42 -100 -82 -86
-71 -88 -72 -45 -24 25 28 67 65 95 82 49 31 69 41 50 24z m-4215 -6 c0 -2
-34 -31 -77 -66 -68 -56 -73 -59 -47 -25 29 38 124 108 124 91z m100 -29 c0
-13 -7 -18 -85 -62 l-50 -27 35 28 c19 16 46 39 60 51 29 26 40 28 40 10z
m4200 -1 c0 -7 -27 -30 -60 -49 -33 -20 -60 -34 -60 -32 0 5 110 95 116 95 2
0 4 -6 4 -14z m-4874 -85 c-4 -5 -29 -28 -56 -51 -43 -36 -50 -39 -50 -22 0
14 17 30 53 51 57 34 61 35 53 22z m4159 -41 c-53 -54 -65 -60 -65 -32 0 14
89 80 110 82 2 0 -18 -22 -45 -50z m-3745 27 c0 -2 -10 -12 -22 -23 l-23 -19
19 23 c18 21 26 27 26 19z m4170 -31 c0 -2 -8 -10 -17 -17 -16 -13 -17 -12 -4
4 13 16 21 21 21 13z m-4230 -20 c0 -2 -43 -38 -95 -80 -75 -62 -100 -77 -122
-74 -26 3 -22 7 42 45 39 23 93 58 120 77 53 37 55 38 55 32z m4190 -10 c0 -3
-39 -37 -86 -75 -54 -45 -94 -71 -110 -71 -36 0 -29 12 20 38 24 13 72 43 107
67 69 47 69 47 69 41z m-3962 -90 c-32 -55 -33 -56 -78 -55 l-45 0 29 22 c16
12 50 38 75 58 25 20 47 35 49 34 1 -1 -12 -28 -30 -59z m4208 7 c-32 -54 -37
-58 -75 -61 -23 -2 -41 0 -40 5 0 6 136 111 146 113 1 0 -13 -26 -31 -57z"/>
<path d="M1910 4000 c-8 -5 -27 -10 -42 -10 -27 0 -28 -2 -28 -56 0 -30 -5
-65 -11 -76 -8 -15 -8 -26 0 -42 7 -13 11 -62 9 -131 l-3 -110 -155 2 c-85 1
-162 2 -170 3 -8 0 -32 -2 -52 -6 l-38 -6 0 -55 c0 -30 -5 -64 -11 -75 -8 -15
-8 -26 0 -42 7 -13 11 -62 9 -131 l-3 -110 -155 2 c-85 1 -162 2 -170 3 -8 0
-32 -2 -52 -6 l-38 -6 0 -55 c0 -30 -5 -64 -11 -75 -8 -15 -8 -26 0 -42 7 -13
11 -62 9 -131 l-3 -110 -155 2 c-85 1 -162 2 -170 3 -8 0 -32 -2 -52 -6 l-38
-6 0 -54 c0 -29 -5 -65 -12 -79 -9 -19 -9 -28 0 -37 17 -17 17 -521 0 -548
-10 -16 -10 -24 0 -40 17 -27 15 -63 -5 -98 -17 -29 -17 -32 0 -49 15 -17 17
-42 16 -199 -1 -100 -6 -194 -12 -212 -9 -25 -8 -38 1 -52 17 -28 17 -492 0
-520 -10 -15 -10 -24 -1 -39 7 -11 11 -60 11 -120 0 -56 2 -105 5 -107 3 -3
97 -6 209 -7 l203 -2 -3 -35 c-1 -19 -2 -44 -1 -55 0 -11 3 -88 5 -172 l5
-152 237 -5 c130 -2 244 -4 252 -4 8 -1 53 1 100 4 69 5 91 2 117 -12 30 -16
35 -16 76 0 37 14 90 16 387 15 204 -1 350 -5 357 -11 8 -6 19 -5 32 2 15 7
95 9 259 6 314 -7 311 -7 506 0 119 4 176 2 191 -6 16 -8 33 -9 61 -1 25 6
295 10 754 10 393 0 766 0 828 0 l112 1 0 184 c0 102 4 195 9 208 l9 24 198 2
c108 1 199 4 201 6 3 2 4 123 4 268 0 178 3 274 11 295 9 26 9 36 0 45 -17 17
-17 309 0 326 10 10 10 17 0 32 -8 14 -12 78 -12 213 0 139 3 196 12 205 10
10 10 17 0 32 -9 15 -12 113 -12 380 l0 360 -107 2 c-143 2 -274 5 -295 7 -17
2 -18 19 -18 207 l0 204 -107 2 c-154 2 -264 5 -290 9 -23 3 -23 3 -23 206 l0
203 -107 2 c-133 1 -271 5 -300 8 l-23 2 0 204 0 204 -47 1 c-27 0 -106 1
-178 1 -78 -1 -135 4 -143 10 -9 8 -20 8 -38 -1 -14 -6 -36 -11 -49 -11 -22 0
-24 -4 -29 -72 -2 -40 -5 -77 -4 -83 0 -5 2 -67 5 -137 l4 -128 -224 0 c-176
0 -232 3 -260 15 -29 12 -44 13 -84 3 -26 -6 -97 -11 -158 -10 -60 0 -126 0
-145 0 -61 -2 -704 0 -727 2 l-23 2 0 204 0 204 -102 2 c-57 0 -139 1 -183 2
-44 1 -87 4 -95 8 -8 4 -22 3 -30 -2z m350 -89 c0 -12 -11 -23 -30 -29 l-30
-11 22 30 c25 34 38 37 38 10z m2098 -3 c-2 -14 -13 -24 -31 -29 l-27 -7 22
28 c28 35 41 38 36 8z m-2116 -115 c-36 -50 -152 -146 -243 -201 -38 -23 -84
-29 -94 -13 -11 20 308 241 348 241 5 0 -1 -12 -11 -27z m2090 -14 c-54 -72
-245 -209 -293 -209 -15 0 -30 4 -33 9 -5 8 91 84 203 161 43 29 133 80 144
80 5 0 -5 -18 -21 -41z m-2338 0 c-10 -12 -36 -35 -56 -51 -35 -27 -38 -28
-38 -10 0 14 17 30 53 50 63 37 65 38 41 11z m2071 -29 c-53 -54 -65 -60 -65
-32 0 14 89 80 110 82 2 0 -18 -22 -45 -50z m-1867 -135 c-21 -42 -24 -45 -62
-45 -25 0 -36 4 -30 9 20 21 99 80 106 80 4 1 -2 -19 -14 -44z m2100 0 c-21
-42 -24 -45 -62 -45 l-41 1 30 22 c16 12 41 32 55 44 38 33 42 28 18 -22z
m-2458 -124 c0 -12 -11 -23 -30 -29 l-30 -11 22 30 c25 34 38 37 38 10z m420
-6 c0 -13 -5 -36 -12 -50 -9 -19 -9 -28 0 -37 8 -8 12 -60 12 -160 l0 -148
238 -2 c130 0 285 0 345 2 74 1 112 -1 122 -10 10 -8 27 -10 52 -4 31 6 339
11 896 14 l87 0 0 210 0 210 181 0 181 0 -6 -42 c-3 -24 -5 -47 -5 -53 1 -5 3
-81 6 -167 l4 -158 211 0 210 0 -6 -42 c-3 -24 -5 -47 -5 -53 1 -5 3 -81 6
-167 l4 -158 211 0 210 0 -6 -42 c-3 -24 -5 -47 -5 -53 1 -5 3 -129 6 -275 3
-198 1 -271 -9 -288 -9 -18 -9 -27 0 -42 17 -28 15 -80 -4 -101 -15 -17 -15
-21 -1 -43 13 -20 16 -57 16 -211 0 -126 -4 -193 -12 -206 -9 -15 -9 -23 1
-39 17 -28 17 -521 0 -538 -10 -10 -10 -17 0 -32 7 -12 11 -49 10 -94 l-2 -75
-498 0 c-365 -1 -504 2 -517 11 -15 9 -31 9 -73 -1 -33 -8 -76 -11 -113 -7
-33 4 -85 7 -115 6 -59 -1 -1635 -1 -1735 0 -33 0 -267 -2 -520 -5 -253 -3
-482 -3 -510 0 l-50 6 -3 50 c-1 28 3 66 10 85 9 26 9 37 0 46 -8 8 -12 56
-12 152 0 113 3 143 16 157 16 18 12 59 -7 59 -5 0 -9 63 -9 148 1 113 4 151
15 166 13 17 13 22 0 42 -12 19 -15 61 -15 208 0 112 4 187 10 191 13 8 13 52
0 60 -6 4 -10 127 -10 336 l0 329 210 0 210 0 0 210 0 210 210 0 210 0 0 210
0 210 180 0 180 0 0 -25z m415 15 c-3 -5 -11 -10 -16 -10 -6 0 -7 5 -4 10 3 6
11 10 16 10 6 0 7 -4 4 -10z m195 1 c0 -16 -342 -274 -415 -313 -68 -37 -118
-48 -130 -29 -12 20 269 220 435 310 73 40 110 50 110 32z m305 1 c-44 -38
-209 -144 -185 -118 50 52 148 125 170 126 13 0 20 -4 15 -8z m209 -20 c-17
-15 -113 -96 -212 -179 -173 -145 -184 -153 -225 -153 -50 1 -54 -3 99 90 138
85 264 185 289 233 16 30 25 37 50 37 l30 -1 -31 -27z m156 24 c0 -3 -70 -52
-100 -70 -8 -5 3 10 25 33 21 22 47 41 57 41 10 0 18 -2 18 -4z m245 -21 c-44
-27 -52 -26 -35 4 7 15 20 21 43 21 l32 -1 -40 -24z m993 3 c-2 -14 -13 -24
-31 -29 l-27 -7 22 28 c28 35 41 38 36 8z m-1143 -34 c-27 -25 -127 -104 -222
-176 -151 -114 -175 -129 -205 -126 -32 3 -25 9 149 138 181 134 297 210 317
210 6 -1 -11 -21 -39 -46z m-639 28 c-3 -5 -40 -37 -83 -72 -73 -60 -75 -62
-39 -20 42 48 141 122 122 92z m942 -38 c-3 -13 -258 -171 -258 -159 0 6 243
175 253 175 5 0 7 -7 5 -16z m-2117 -72 c-16 -30 -117 -117 -199 -173 -53 -35
-83 -49 -108 -49 -19 0 -34 4 -34 9 0 24 334 250 348 236 2 -2 -1 -12 -7 -23z
m1339 24 c0 -2 -25 -20 -55 -40 -30 -20 -55 -34 -55 -31 0 4 101 75 107 75 2
0 3 -2 3 -4z m1592 -37 c-54 -72 -245 -209 -293 -209 -15 0 -30 4 -33 9 -5 8
91 84 203 161 43 29 133 80 144 80 5 0 -5 -18 -21 -41z m-3178 0 c-10 -12 -36
-35 -56 -51 -35 -27 -38 -28 -38 -10 0 14 17 30 53 50 63 37 65 38 41 11z
m830 -10 c-16 -17 -41 -40 -56 -51 -28 -19 -28 -19 -28 0 0 14 17 30 53 50 66
39 67 39 31 1z m2081 -19 c-53 -54 -65 -60 -65 -32 0 11 20 30 53 49 28 17 54
32 57 32 2 1 -18 -21 -45 -49z m-1665 7 c0 -2 -10 -12 -22 -23 l-23 -19 19 23
c18 21 26 27 26 19z m1110 -22 c-7 -8 -17 -15 -22 -15 -6 0 -5 7 2 15 7 8 17
15 22 15 6 0 5 -7 -2 -15z m-1170 -29 c-65 -62 -165 -136 -186 -136 -36 0 -29
12 20 38 24 13 72 43 107 67 67 46 83 54 59 31z m-982 -91 c-21 -42 -24 -45
-62 -45 -25 0 -36 4 -30 9 20 21 99 80 106 80 4 1 -2 -19 -14 -44z m2940 0
c-21 -42 -25 -45 -62 -45 -21 0 -36 3 -32 8 17 17 102 80 108 81 4 1 -2 -19
-14 -44z m-1250 -5 c-24 -28 -41 -40 -60 -40 -16 0 -28 2 -28 4 0 4 111 76
118 76 2 0 -12 -18 -30 -40z m216 -1 c-30 -30 -48 -40 -65 -37 -21 3 -16 8 36
40 33 20 62 37 65 37 3 1 -14 -17 -36 -40z m-2264 -118 c0 -12 -11 -23 -30
-29 l-30 -11 22 30 c25 34 38 37 38 10z m3773 -21 c-4 -4 -19 -11 -33 -15 -25
-7 -25 -7 5 25 24 25 31 28 33 15 2 -10 0 -21 -5 -25z m-3792 -98 c-32 -60
-257 -222 -308 -222 -18 0 -33 5 -33 10 0 19 276 213 330 232 21 7 23 3 11
-20z m3769 -15 c-27 -38 -106 -102 -227 -185 -31 -22 -87 -30 -97 -13 -5 8 91
84 203 161 42 29 133 80 144 80 5 0 -6 -19 -23 -43z m-4026 -8 c-16 -17 -41
-40 -56 -51 -28 -19 -28 -19 -28 0 0 14 17 30 53 50 66 39 67 39 31 1z m3761
-19 c-38 -38 -51 -47 -53 -34 -2 9 1 21 7 27 10 10 81 54 91 56 2 1 -18 -22
-45 -49z m-3547 -135 c-21 -42 -24 -45 -62 -45 -25 0 -36 4 -30 9 20 21 99 80
106 80 4 1 -2 -19 -14 -44z m3782 3 c-18 -40 -22 -43 -62 -46 l-43 -2 30 22
c16 13 41 33 55 45 37 33 41 28 20 -19z m-4140 -128 c0 -13 -10 -24 -26 -30
-36 -14 -37 -13 -12 20 25 35 38 38 38 10z m4613 -20 c-4 -4 -19 -11 -33 -15
-25 -7 -25 -7 5 25 24 25 31 28 33 15 2 -10 0 -21 -5 -25z m-4628 -100 c-8
-16 -46 -49 -88 -76 -39 -25 -101 -70 -137 -99 -61 -48 -101 -75 -114 -75 -3
0 -6 11 -6 24 0 18 18 37 73 78 126 95 256 177 280 178 4 0 1 -13 -8 -30z
m4635 21 c0 -18 -42 -60 -92 -92 -29 -18 -96 -66 -149 -106 -52 -40 -98 -73
-102 -73 -4 0 -7 12 -7 28 0 22 15 38 88 92 87 65 238 160 254 160 4 0 8 -4 8
-9z m-4896 -42 c-16 -17 -41 -40 -56 -51 -28 -19 -28 -19 -28 0 0 14 17 30 53
50 66 39 67 39 31 1z m4655 29 c-2 -2 -28 -25 -58 -53 -47 -44 -52 -47 -49
-26 2 17 18 34 48 52 25 15 49 28 54 28 5 1 7 0 5 -1z m241 -166 c0 -16 -23
-32 -83 -60 -5 -2 11 14 35 37 24 22 44 41 46 41 1 0 2 -8 2 -18z m-4622 -4
c-3 -7 -24 -24 -49 -37 l-44 -23 40 36 c42 37 60 45 53 24z m-288 -143 c-20
-24 -70 -58 -70 -47 0 5 17 21 38 35 44 30 49 32 32 12z m4620 2 c0 -2 -13
-16 -30 -32 -19 -19 -30 -24 -30 -14 0 8 12 21 28 31 31 19 32 19 32 15z
m-4330 -76 c0 -12 -9 -20 -26 -24 l-25 -4 22 23 c27 29 29 29 29 5z m4620 0
c0 -12 -9 -20 -26 -24 l-25 -4 22 23 c27 29 29 29 29 5z m-4900 -141 c-69 -63
-80 -69 -80 -45 0 12 122 103 140 104 3 0 -24 -26 -60 -59z m4660 35 c-7 -9
-35 -34 -61 -56 -42 -35 -49 -38 -49 -21 0 13 19 31 58 55 66 41 69 42 52 22z
m-4477 -43 c-46 -40 -172 -143 -220 -181 -39 -29 -43 -31 -43 -13 0 12 13 29
33 41 18 11 81 56 141 100 109 81 149 105 89 53z m4602 -18 c-98 -89 -229
-186 -234 -173 -2 7 7 21 20 31 13 9 76 55 139 102 63 47 117 85 120 85 3 0
-17 -20 -45 -45z m-4505 -107 c0 -7 -42 -37 -92 -66 -105 -59 -105 -56 1 23
78 58 91 65 91 43z m4620 -1 c0 -8 -24 -27 -52 -44 -29 -16 -71 -40 -93 -53
-54 -30 -43 -20 51 51 84 63 94 68 94 46z m-4620 -115 c0 -5 -17 -19 -37 -30
l-38 -22 33 31 c34 32 42 36 42 21z m4605 -18 c-41 -30 -59 -33 -26 -4 19 17
37 28 40 25 3 -3 -3 -12 -14 -21z m-275 -127 c0 -3 -13 -14 -30 -26 -16 -12
-30 -18 -30 -13 0 5 12 16 28 25 30 19 32 20 32 14z m-4660 -31 c-13 -14 -26
-22 -29 -19 -3 3 5 14 18 25 33 27 39 24 11 -6z m319 -56 c-69 -42 -119 -69
-119 -65 0 3 28 28 63 56 49 40 63 47 66 34 1 -10 -3 -21 -10 -25z m4624 1
c-4 -4 -35 -22 -68 -40 -65 -35 -59 -25 20 38 38 31 51 37 53 25 2 -8 0 -18
-5 -23z m-4613 -119 c0 -11 -34 -48 -84 -91 -93 -80 -210 -162 -166 -117 28
29 244 226 248 227 1 0 2 -8 2 -19z m4618 -25 c-2 -2 -49 -41 -104 -87 -137
-113 -193 -144 -89 -48 44 41 105 97 135 126 48 45 55 49 58 32 2 -12 2 -22 0
-23z m-4948 -1 c-13 -14 -26 -22 -29 -19 -3 3 5 14 19 24 34 27 38 25 10 -5z
m4620 0 c-7 -9 -15 -13 -19 -10 -3 3 1 10 9 15 21 14 24 12 10 -5z m-4535 -86
c-22 -22 -57 -54 -78 -71 l-39 -31 4 28 c2 23 16 37 73 71 39 23 72 43 75 43
2 1 -14 -17 -35 -40z m4655 28 c-8 -8 -43 -40 -77 -72 l-63 -58 0 29 c0 26 8
35 73 72 77 44 90 50 67 29z m-4470 -143 c-46 -46 -276 -214 -294 -214 -44 0
158 175 277 241 28 16 56 29 62 29 5 0 -15 -25 -45 -56z m4649 27 c-29 -39
-96 -94 -214 -174 -75 -51 -101 -64 -103 -52 -4 17 1 21 121 117 76 62 192
138 209 138 5 0 -1 -13 -13 -29z m28 -264 c-2 -7 -24 -23 -48 -36 l-44 -24 45
47 c40 42 60 47 47 13z m-4619 8 c-2 -9 -23 -27 -48 -42 l-45 -26 40 42 c41
43 59 52 53 26z m4619 -140 c-6 -14 -227 -165 -242 -165 -11 0 88 89 174 157
47 36 67 47 69 36 2 -8 1 -20 -1 -28z m-4912 -10 c-54 -48 -65 -53 -65 -31 0
11 91 74 110 75 3 0 -17 -19 -45 -44z m295 27 c0 -20 -15 -32 -130 -109 -112
-75 -132 -81 -65 -18 68 64 173 145 186 145 5 0 9 -8 9 -18z m4355 -1 c-3 -5
-23 -24 -45 -41 -35 -27 -40 -29 -40 -13 0 12 15 27 43 40 50 26 50 26 42 14z
m-4687 -176 c-12 -27 -28 -33 -28 -10 0 11 23 33 37 35 2 0 -3 -11 -9 -25z
m4625 -2 c-15 -23 -18 -24 -21 -9 -2 10 2 22 10 27 24 16 29 9 11 -18z m-4399
-8 c-4 -8 -14 -15 -23 -15 -14 1 -13 3 3 15 25 19 27 19 20 0z m4621 -4 c-3
-6 -14 -11 -23 -11 -13 0 -13 2 4 14 21 15 30 14 19 -3z m-4100 -81 c-3 -5
-12 -10 -18 -10 -7 0 -6 4 3 10 19 12 23 12 15 0z m195 0 c0 -12 6 -7 -193
-160 -182 -140 -267 -190 -320 -190 -20 0 -37 4 -37 9 0 10 160 134 255 198
91 61 257 153 277 153 10 0 18 -5 18 -10z m310 6 c0 -6 -113 -84 -165 -115
-49 -29 -33 -11 55 63 36 30 75 55 88 56 12 0 22 -2 22 -4z m230 -1 c0 -2 -93
-83 -207 -180 -203 -171 -209 -175 -253 -175 l-45 1 53 32 c208 124 353 237
380 293 12 27 22 34 44 34 15 0 28 -2 28 -5z m108 -18 c-15 -12 -42 -31 -60
-41 l-33 -19 40 42 c21 22 48 41 60 41 18 -1 18 -3 -7 -23z m302 19 c0 -2 -20
-16 -45 -29 l-45 -25 15 29 c12 22 23 29 45 29 17 0 30 -2 30 -4z m230 -9
c-12 -11 -182 -111 -340 -199 l-35 -20 29 24 c16 12 90 65 164 116 98 66 144
92 166 92 26 0 28 -2 16 -13z m210 9 c0 -4 -162 -101 -205 -124 -17 -9 -2 4
75 67 50 40 84 60 103 61 15 0 27 -2 27 -4z m366 -5 c-3 -4 -63 -41 -133 -81
-71 -41 -139 -80 -153 -89 -42 -25 -10 3 109 93 91 70 120 86 148 86 19 0 32
-4 29 -9z m279 0 c-3 -5 -56 -48 -118 -94 -61 -46 -145 -111 -186 -145 -89
-72 -163 -115 -194 -110 -18 2 16 36 181 181 l202 177 61 0 c35 0 58 -4 54 -9z
m224 -27 c-18 -19 -132 -100 -252 -180 -202 -134 -221 -145 -259 -142 l-40 3
83 59 c46 33 131 98 188 145 130 106 210 150 270 151 l45 0 -35 -36z m531 31
c0 -3 -157 -98 -254 -153 -5 -3 26 31 70 76 78 80 79 80 132 81 28 1 52 -1 52
-4z m240 -2 c0 -9 -4 -12 -231 -164 -265 -178 -414 -245 -298 -135 68 64 194
155 332 242 88 55 108 64 150 64 26 0 47 -3 47 -7z m215 -2 c-17 -15 -536
-311 -531 -302 7 10 146 93 295 176 57 32 120 75 140 95 27 29 44 39 71 39 20
1 30 -3 25 -8z m250 -1 c-9 -14 -220 -155 -328 -218 -96 -57 -198 -110 -182
-95 25 24 139 106 230 165 55 36 123 86 150 111 43 40 56 46 93 47 27 0 41 -4
37 -10z m-2735 -52 c-30 -27 -129 -106 -220 -174 -137 -103 -171 -124 -200
-124 -43 0 -51 -7 165 152 169 125 281 198 300 198 6 -1 -15 -24 -45 -52z
m-652 15 c-18 -15 -60 -50 -93 -77 l-60 -51 44 50 c41 46 114 103 134 104 5 1
-6 -11 -25 -26z m182 -68 c0 -2 -28 -23 -61 -46 -34 -23 -58 -36 -54 -30 4 7
30 28 59 46 55 37 56 37 56 30z m-775 -65 c-53 -54 -65 -60 -65 -32 0 11 20
30 53 49 28 17 54 32 57 32 2 1 -18 -21 -45 -49z m4070 31 c-3 -6 -11 -11 -17
-11 -6 0 -6 6 2 15 14 17 26 13 15 -4z m-3635 -24 c0 -2 -10 -12 -22 -23 l-23
-19 19 23 c18 21 26 27 26 19z m1670 0 c0 -2 -47 -45 -105 -96 l-105 -92 -58
3 -57 3 160 92 c163 94 165 95 165 90z m-325 -49 c-22 -18 -65 -57 -97 -86
-50 -48 -60 -53 -95 -50 l-38 3 130 82 c72 45 132 83 135 83 2 0 -13 -15 -35
-32z m-1395 8 c0 -3 -39 -37 -86 -75 -67 -56 -92 -71 -117 -71 l-32 1 38 22
c21 12 73 45 115 74 83 56 82 55 82 49z m2415 -34 c-77 -68 -140 -112 -162
-112 -33 0 -31 2 74 66 85 52 107 63 88 46z m-1406 -6 c-44 -43 -137 -106
-157 -106 -33 0 -27 5 71 62 75 44 97 55 86 44z m2004 -50 c-45 -51 -51 -55
-93 -55 -32 0 -41 2 -30 9 30 18 165 98 168 99 2 1 -18 -24 -45 -53z m-2315
-16 c-25 -30 -40 -40 -62 -40 -18 0 -26 4 -20 9 9 9 107 70 112 71 2 0 -12
-18 -30 -40z m2841 -6 c-22 -21 -44 -35 -55 -32 -13 2 -6 11 32 35 63 42 67
41 23 -3z m-1049 -14 c-6 -12 -21 -20 -35 -20 -32 0 -31 6 3 24 37 21 45 20
32 -4z m1165 -10 c-3 -5 -11 -10 -16 -10 -6 0 -7 5 -4 10 3 6 11 10 16 10 6 0
7 -4 4 -10z"/>
<path d="M2750 2740 c-8 -5 -27 -10 -42 -10 -28 0 -28 -1 -28 -63 0 -36 -5
-68 -12 -75 -10 -10 -10 -17 0 -32 8 -13 12 -61 12 -135 l0 -115 -157 5 c-87
2 -165 4 -173 5 -8 0 -32 -2 -52 -6 l-38 -6 0 -62 c0 -36 -5 -67 -12 -74 -10
-10 -10 -17 0 -32 17 -28 17 -522 0 -550 -10 -16 -10 -24 0 -40 17 -28 15 -80
-5 -102 -26 -29 -6 -54 38 -49 19 1 115 4 214 5 l180 1 3 -27 c2 -15 -2 -37
-8 -49 -9 -15 -9 -24 -1 -32 7 -7 11 -65 11 -159 l0 -148 238 -1 c202 -1 395
-4 492 -8 14 0 58 2 97 5 l73 6 2 206 3 207 208 3 207 2 0 46 c0 25 8 59 17
75 16 26 16 29 0 47 -16 17 -17 53 -17 372 1 194 -1 354 -3 356 -2 2 -86 6
-188 8 -101 3 -194 5 -206 6 l-23 0 0 204 0 203 -41 12 c-28 9 -50 9 -72 2
-37 -11 -664 -10 -687 1 -8 5 -22 3 -30 -2z m350 -74 c0 -3 -4 -8 -10 -11 -5
-3 -10 -1 -10 4 0 6 5 11 10 11 6 0 10 -2 10 -4z m190 -8 c0 -7 -15 -23 -33
-34 -17 -12 -97 -72 -177 -134 -186 -144 -311 -208 -335 -171 -10 18 201 172
395 288 101 60 150 77 150 51z m78 -60 c-35 -28 -74 -61 -88 -72 -13 -12 -7
-1 15 24 36 42 110 100 128 100 4 0 -20 -23 -55 -52z m152 18 c0 -7 -27 -30
-60 -49 -33 -20 -60 -34 -60 -32 0 5 110 95 116 95 2 0 4 -6 4 -14z m-715
-126 c-53 -54 -65 -60 -65 -32 0 11 20 30 53 49 28 17 54 32 57 32 2 1 -18
-21 -45 -49z m435 7 c0 -2 -10 -12 -22 -23 l-23 -19 19 23 c18 21 26 27 26 19z
m-50 -41 c0 -3 -39 -36 -86 -75 -63 -52 -94 -71 -115 -71 -16 0 -29 2 -29 4 0
2 28 20 63 40 34 19 85 51 112 70 54 37 55 38 55 32z m241 -88 c-29 -51 -32
-53 -78 -56 -26 -2 -45 -1 -43 1 9 10 145 107 148 107 2 0 -10 -24 -27 -52z
m-758 -158 c-4 -4 -19 -11 -33 -15 -25 -7 -25 -7 5 25 24 25 31 28 33 15 2
-10 0 -21 -5 -25z m742 30 c11 0 39 2 63 6 42 6 42 6 42 -26 0 -17 -5 -41 -11
-52 -8 -14 -8 -23 0 -31 16 -16 15 -521 -1 -547 -9 -15 -9 -24 1 -43 21 -40
11 -61 -34 -68 -31 -6 -601 -5 -712 0 -27 1 -29 13 -6 52 16 26 16 29 0 47
-15 17 -17 52 -17 339 0 176 3 323 7 327 5 5 525 2 668 -4z m518 -30 c-4 -4
-19 -11 -33 -15 -25 -7 -25 -7 5 25 24 25 31 28 33 15 2 -10 0 -21 -5 -25z
m-1253 -75 c0 -21 -46 -65 -114 -110 -45 -29 -112 -78 -151 -109 -77 -62 -95
-68 -95 -32 0 19 20 38 88 88 119 88 146 107 206 139 51 28 66 34 66 24z
m1260 -1 c0 -18 -47 -67 -93 -95 -28 -17 -95 -65 -148 -105 -52 -41 -100 -74
-107 -74 -7 0 -12 11 -12 24 0 19 20 39 90 91 89 66 246 165 262 165 4 0 8 -3
8 -6z m-1555 -64 c-53 -54 -65 -60 -65 -32 0 11 20 30 53 49 28 17 54 32 57
32 2 1 -18 -21 -45 -49z m1260 0 c-53 -54 -65 -60 -65 -32 0 11 20 30 53 49
28 17 54 32 57 32 2 1 -18 -21 -45 -49z m-965 -120 c0 -9 -73 -60 -86 -60 -10
0 69 69 79 70 4 0 7 -4 7 -10z m1260 -3 c0 -11 -30 -31 -84 -55 -4 -3 9 12 30
31 42 39 54 44 54 24z m-1570 -162 c-32 -33 -55 -46 -48 -26 3 9 67 58 77 60
3 1 -10 -15 -29 -34z m1255 -5 c-29 -30 -45 -38 -45 -21 0 8 55 47 69 50 3 1
-8 -12 -24 -29z m-945 -49 c0 -12 -9 -20 -26 -24 l-25 -4 22 23 c27 29 29 29
29 5z m1260 0 c0 -12 -9 -20 -26 -24 l-25 -4 22 23 c27 29 29 29 29 5z m-1545
-146 c-64 -58 -75 -64 -75 -40 0 12 114 95 130 94 3 0 -22 -24 -55 -54z m1260
0 c-63 -58 -75 -64 -75 -40 0 12 114 95 130 94 3 0 -22 -24 -55 -54z m-1037
17 c-7 -10 -33 -44 -58 -75 -44 -56 -46 -57 -94 -57 l-49 0 99 75 c100 75 126
90 102 57z m1265 6 c-106 -141 -103 -138 -152 -138 -45 0 -45 0 -26 19 23 22
174 131 182 131 3 0 1 -6 -4 -12z m-593 -212 c0 -7 -12 -22 -27 -31 -16 -10
-93 -69 -173 -131 -169 -130 -260 -184 -313 -184 -20 0 -37 3 -37 8 0 21 266
210 425 301 91 52 125 62 125 37z m135 -14 c-6 -5 -48 -39 -95 -77 l-85 -69
45 50 c42 47 113 101 135 103 5 1 5 -2 0 -7z m75 -51 c-44 -30 -100 -62 -100
-58 0 3 26 26 57 52 37 30 59 42 62 34 2 -7 -6 -20 -19 -28z m-700 -106 c-48
-49 -60 -54 -60 -27 0 14 78 70 100 72 2 0 -16 -20 -40 -45z m430 1 c0 -2 -47
-42 -106 -90 -83 -69 -111 -87 -132 -84 -23 3 -14 11 73 65 55 34 114 73 130
87 31 26 35 29 35 22z m228 -78 c-8 -13 -24 -40 -37 -60 -21 -35 -26 -38 -69
-38 l-46 0 80 59 c43 33 81 60 83 60 2 1 -3 -9 -11 -21z m-273 -88 c-3 -5 -12
-10 -18 -10 -7 0 -6 4 3 10 19 12 23 12 15 0z"/>
</g>
</svg>
